<svg width="16" height="16" viewBox="0 0 16 16" fill="none" xmlns="http://www.w3.org/2000/svg">
  <path fill-rule="evenodd" clip-rule="evenodd" d="M2 3C2 2.44772 2.44772 2 3 2H13C13.5523 2 14 2.44772 14 3V9C14 9.55228 13.5523 10 13 10H9.41421L7.70711 11.7071C7.31658 12.0976 6.68342 12.0976 6.29289 11.7071L4.58579 10H3C2.44772 10 2 9.55228 2 9V3ZM3 3V9H5C5.26522 9 5.51957 9.10536 5.70711 9.29289L7 10.5858L8.29289 9.29289C8.48043 9.10536 8.73478 9 9 9H13V3H3Z" fill="currentColor"/>
  <path d="M10 7L6 5V6.5L8.5 7.5L6 8.5V10L10 8V7Z" fill="currentColor"/>
</svg>
