<svg width="16" height="16" viewBox="0 0 16 16" fill="none" xmlns="http://www.w3.org/2000/svg">
<path fill-rule="evenodd" clip-rule="evenodd" d="M8 16C3.58172 16 0 12.4183 0 8C0 3.58172 3.58172 0 8 0C12.4183 0 16 3.58172 16 8C16 12.4183 12.4183 16 8 16ZM8 15C4.13401 15 1 11.866 1 8C1 4.13401 4.13401 1 8 1C11.866 1 15 4.13401 15 8C15 11.866 11.866 15 8 15Z" fill="black"/>
<path d="M7.25 4.25C7.25 3.69772 7.69772 3.25 8.25 3.25C8.80228 3.25 9.25 3.69772 9.25 4.25C9.25 4.80228 8.80228 5.25 8.25 5.25C7.69772 5.25 7.25 4.80228 7.25 4.25Z" fill="black"/>
<path d="M7 6.5C7 6.22386 7.22386 6 7.5 6H8.5C8.77614 6 9 6.22386 9 6.5V12.5C9 12.7761 8.77614 13 8.5 13H7.5C7.22386 13 7 12.7761 7 12.5V6.5Z" fill="black"/>
</svg>
